HIERARCHY
ROOT root
{
	OFFSET 0.000000 0.000000 0.000000
	CHANNELS 6 Xposition Yposition Zposition Zrotation Yrotation Xrotation
	JOINT lhip
	{
		OFFSET 0.058581 -0.082280 -0.017664
		CHANNELS 3 Zrotation Yrotation Xrotation
		JOINT lknee
		{
			OFFSET 0.043451 -0.386469 0.008037
			CHANNELS 3 Zrotation Yrotation Xrotation
			JOINT lankle
			{
				OFFSET -0.014790 -0.426874 -0.037428
				CHANNELS 3 Zrotation Yrotation Xrotation
				JOINT ltoe
				{
					OFFSET 0.041054 -0.060286 0.122042
					CHANNELS 3 Zrotation Yrotation Xrotation
					End Site
					{
						OFFSET 0.000000 0.000000 0.000000
					}
				}
			}
		}
	}
	JOINT rhip
	{
		OFFSET -0.060310 -0.090513 -0.013543
		CHANNELS 3 Zrotation Yrotation Xrotation
		JOINT rknee
		{
			OFFSET -0.043257 -0.383688 -0.004843
			CHANNELS 3 Zrotation Yrotation Xrotation
			JOINT rankle
			{
				OFFSET 0.019056 -0.420046 -0.034562
				CHANNELS 3 Zrotation Yrotation Xrotation
				JOINT rtoe
				{
					OFFSET -0.034840 -0.062106 0.130323
					CHANNELS 3 Zrotation Yrotation Xrotation
					End Site
					{
						OFFSET 0.000000 0.000000 0.000000
					}
				}
			}
		}
	}
	JOINT lowerback
	{
		OFFSET 0.004439 0.124404 -0.038385
		CHANNELS 3 Zrotation Yrotation Xrotation
		JOINT upperback
		{
			OFFSET 0.004488 0.137956 0.026820
			CHANNELS 3 Zrotation Yrotation Xrotation
			JOINT chest
			{
				OFFSET -0.002265 0.056032 0.002855
				CHANNELS 3 Zrotation Yrotation Xrotation
				JOINT lowerneck
				{
					OFFSET -0.013390 0.211636 -0.033468
					CHANNELS 3 Zrotation Yrotation Xrotation
					JOINT upperneck
					{
						OFFSET 0.010113 0.088937 0.050410
						CHANNELS 3 Zrotation Yrotation Xrotation
						End Site
						{
							OFFSET 0.000000 0.000000 0.000000
						}
					}
				}
				JOINT lclavicle
				{
					OFFSET 0.071702 0.114000 -0.018898
					CHANNELS 3 Zrotation Yrotation Xrotation
					JOINT lshoulder
					{
						OFFSET 0.122921 0.045205 -0.019046
						CHANNELS 3 Zrotation Yrotation Xrotation
						JOINT lelbow
						{
							OFFSET 0.255332 -0.015649 -0.022946
							CHANNELS 3 Zrotation Yrotation Xrotation
							JOINT lwrist
							{
								OFFSET 0.265709 0.012698 -0.007375
								CHANNELS 3 Zrotation Yrotation Xrotation
								End Site
								{
									OFFSET 0.000000 0.000000 0.000000
								}
							}
						}
					}
				}
				JOINT rclavicle
				{
					OFFSET -0.082954 0.112472 -0.023707
					CHANNELS 3 Zrotation Yrotation Xrotation
					JOINT rshoulder
					{
						OFFSET -0.113228 0.046853 -0.008472
						CHANNELS 3 Zrotation Yrotation Xrotation
						JOINT relbow
						{
							OFFSET -0.260127 -0.014369 -0.031269
							CHANNELS 3 Zrotation Yrotation Xrotation
							JOINT rwrist
							{
								OFFSET -0.269108 0.006794 -0.006027
								CHANNELS 3 Zrotation Yrotation Xrotation
								End Site
								{
									OFFSET 0.000000 0.000000 0.000000
								}
							}
						}
					}
				}
			}
		}
	}
}
MOTION
Frames: 7
Frame Time: 0.033333
-1.555577 0.303149 0.981970 91.940149 0.858033 88.450691 3.686212 3.864968 3.475411 -1.965473 -4.173737 3.733199 5.247866 11.063337 -14.100082 0.000000 -0.000000 0.000000 -4.425330 -3.438638 -3.534261 0.475200 -1.765959 14.139505 2.512659 -8.115136 -12.930715 0.000000 -0.000000 0.000000 1.597061 -0.233800 6.049957 0.742719 -2.024537 -1.642163 -0.514903 -1.526863 0.032070 5.856979 -2.673325 -6.289631 2.634232 -7.329592 5.818118 -25.226881 1.416085 2.002754 -58.483603 -7.727450 10.175963 5.073042 -25.267226 15.961445 -2.746571 -0.086239 2.874661 23.768563 1.908010 -0.369999 60.484740 4.316741 14.915281 -12.508125 23.783291 3.307671 -2.635901 -0.132849 0.274033 
-1.555226 0.303078 0.981777 91.346974 0.826810 88.578643 3.626113 3.893736 3.670994 -1.974946 -4.030346 3.332033 5.299305 11.421762 -13.961547 0.000000 -0.000000 0.000000 -4.447125 -3.097970 -3.736256 0.546601 -1.385239 14.118398 2.962257 -8.299447 -13.027888 0.000000 -0.000000 0.000000 1.481980 -0.218154 5.616648 0.675512 -1.764886 -1.354439 -0.586252 -1.218655 0.435786 6.179851 -1.985732 -7.148634 3.111652 -7.436158 5.690841 -24.857919 1.424593 1.831812 -58.745688 -8.014525 10.506701 5.156368 -25.097861 15.988976 -2.633313 -0.113522 2.669112 24.163756 1.695467 -0.951111 60.356234 4.248383 15.296963 -12.525189 23.919813 3.456789 -2.676463 -0.228269 0.171689 
-1.555014 0.303070 0.981568 90.952414 0.855599 88.706271 3.621529 3.917349 3.797286 -1.987406 -3.919097 3.126103 5.046642 11.606447 -14.015114 0.000000 -0.000000 0.000000 -4.386349 -2.924479 -3.890888 0.552579 -1.066603 14.057583 3.347068 -8.361288 -13.032516 0.000000 -0.000000 0.000000 1.417393 -0.225617 5.109895 0.523155 -1.614376 -0.909876 -0.721295 -0.878536 1.374275 6.517006 0.114822 -9.286611 3.895536 -6.680872 5.223627 -24.409636 1.366732 1.021894 -58.993836 -8.521643 10.915160 5.026599 -24.712614 15.934478 -2.227487 -0.341879 3.150266 24.874223 1.312289 -2.305267 60.049502 4.236680 15.825849 -12.329967 24.080746 3.483291 -2.809381 -0.015425 0.184244 
-1.554993 0.303257 0.981158 90.653652 0.900219 88.916253 3.562038 3.741009 4.104126 -1.979965 -3.880117 2.613570 4.626589 11.979740 -14.083554 0.000000 -0.000000 0.000000 -4.291858 -2.654190 -4.091827 0.567225 -0.691179 13.924188 3.932340 -8.648566 -13.078553 0.000000 -0.000000 0.000000 1.267973 -0.272534 4.508473 0.223620 -1.497371 -0.478627 -0.989531 -0.282556 2.585602 6.958373 3.278769 -12.355934 5.093930 -5.724429 4.988472 -23.577867 1.024385 0.293240 -59.414172 -9.507113 11.564220 4.950649 -23.944631 15.517122 -1.563912 -0.736747 3.874655 26.211332 0.823026 -4.169809 59.447712 3.904216 16.592289 -12.149831 24.524514 3.317873 -2.857265 0.215716 0.052955 
-1.554939 0.303630 0.980780 90.588319 0.926924 88.853004 3.590427 3.832791 4.346042 -1.992191 -3.921605 2.471942 4.693374 11.968470 -14.131242 0.000000 -0.000000 0.000000 -4.278353 -2.641985 -4.036570 0.545606 -0.722062 13.942322 3.857290 -8.518075 -13.078654 0.000000 -0.000000 0.000000 1.247260 -0.305001 4.693796 0.252585 -1.583852 -0.617453 -0.976129 -0.249944 2.209021 7.084058 2.599555 -11.920429 5.469263 -6.363507 4.785203 -23.523346 0.759038 0.842283 -59.430172 -9.484306 11.361970 5.019952 -23.807169 15.292527 -1.651843 -0.626473 3.857330 26.049629 0.931727 -3.860363 59.768857 3.677107 16.342687 -12.301910 24.713878 3.348909 -2.714334 0.168633 -0.119757 
-1.554777 0.303687 0.980321 90.536393 0.968947 88.690153 3.709830 4.073218 4.553173 -2.075685 -3.981198 2.511568 4.938786 11.784561 -14.220738 0.000000 -0.000000 0.000000 -4.248825 -2.721830 -3.888406 0.494724 -0.808380 14.008362 3.710837 -8.203093 -13.047415 0.000000 -0.000000 0.000000 1.184482 -0.316893 4.977729 0.331430 -1.746513 -0.675757 -0.957517 -0.127649 1.796296 7.473015 0.895753 -11.549322 7.156222 -8.031021 3.349006 -23.159122 0.436202 1.384672 -59.863881 -9.502594 11.055171 5.092729 -23.700043 15.329417 -1.788090 -0.260488 3.745075 25.482121 0.962830 -3.658319 60.549143 3.353896 15.776897 -12.392554 25.012289 3.867186 -2.498209 0.016174 -0.310905 
-1.554841 0.303683 0.980328 90.492434 0.981687 88.628818 3.749044 4.182472 4.547576 -2.124901 -3.967423 2.663909 5.084448 11.663693 -14.312864 0.000000 -0.000000 0.000000 -4.244184 -2.712466 -3.863798 0.492426 -0.823551 14.062114 3.688554 -8.097162 -13.052784 0.000000 -0.000000 0.000000 1.168572 -0.355148 5.044571 0.340725 -1.829029 -0.700167 -0.982634 -0.120653 1.719118 7.649415 0.363821 -11.357872 7.685046 -8.508053 2.908592 -22.970705 0.312629 1.578832 -60.141102 -9.620749 10.936588 5.183075 -23.520531 15.355849 -1.879072 -0.098893 3.737114 25.218318 0.897376 -3.658426 61.013825 3.209262 15.646477 -12.443580 25.221897 4.154883 -2.396060 -0.079054 -0.458324 
